<?xml version="1.0" standalone="no"?>
<!DOCTYPE svg PUBLIC "-//W3C//DTD SVG 1.1//EN" "http://www.w3.org/Graphics/SVG/1.1/DTD/svg11.dtd" >
<svg xmlns="http://www.w3.org/2000/svg">
<metadata>
This is a custom SVG webfont generated by Font Squirrel.
Copyright   :  1991 2002 Adobe Systems Incorporated All rights reserved
Designer    : Adrian Frutiger
Foundry URL : httpwwwadobecomtype
</metadata>
<defs>
<font id="FrutigerLTStd47LightCondensed" horiz-adv-x="983" >
<font-face units-per-em="2048" ascent="1536" descent="-512" />
<missing-glyph horiz-adv-x="491" />
<glyph unicode=" "  horiz-adv-x="491" />
<glyph unicode="&#x09;" horiz-adv-x="491" />
<glyph unicode="&#xa0;" horiz-adv-x="491" />
<glyph unicode="!" horiz-adv-x="720" d="M285 0v184h151v-184h-151zM285 1430h151l-20 -1078h-111z" />
<glyph unicode="&#x22;" d="M287 1081v455h119v-455h-119zM578 1081v455h118v-455h-118z" />
<glyph unicode="#" d="M49 455v102h193l39 315h-181v103h193l53 455h103l-54 -455h256l54 455h102l-53 -455h180v-103h-193l-39 -315h181v-102h-193l-53 -455h-102l53 455h-256l-53 -455h-103l53 455h-180zM344 557h256l39 315h-256z" />
<glyph unicode="$" d="M160 1098q0 88 28.5 154.5t75.5 102.5t93.5 55.5t95.5 25.5v168h73v-160h6q104 0 226 -45l-6 -144q-117 70 -226 70v-522q180 -131 238.5 -210t58.5 -212q0 -152 -82 -256.5t-215 -132.5v-182h-73v176h-13q-164 0 -270 67l8 148q106 -96 252 -97h23v582l-35 25 q-150 100 -204 183t-54 204zM295 1116q0 -86 37 -140.5t121 -115.5v457q-158 -45 -158 -201zM526 119q63 20 103.5 74.5t49.5 95.5t9 73q0 88 -39 149t-123 124v-516z" />
<glyph unicode="%" horiz-adv-x="1669" d="M147 1057q0 168 63.5 277.5t209 109.5t209 -109.5t63.5 -277.5t-63.5 -277.5t-209 -109.5t-209 109.5t-63.5 277.5zM266 1056.5q0 -276.5 153.5 -276.5t153.5 276.5t-153.5 276.5t-153.5 -276.5zM457 -68l641 1565h110l-641 -1565h-110zM977 373q0 168 63.5 277.5 t209 109.5t209 -109.5t63.5 -277.5t-63.5 -277.5t-209 -109.5t-209 109.5t-63.5 277.5zM1096 372.5q0 -276.5 153.5 -276.5t153.5 276.5t-153.5 276.5t-153.5 -276.5z" />
<glyph unicode="&#x26;" horiz-adv-x="1175" d="M115 397q0 266 282 416q-74 88 -113.5 166t-39.5 170q0 43 16 90t50 95t100.5 79t152.5 31q129 0 206 -83t77 -190q0 -135 -72 -221t-207 -174l295 -411q80 160 96 442h119q-31 -348 -143 -545l209 -262h-162l-119 172q-8 -18 -31.5 -45t-65.5 -60.5t-111.5 -57 t-151.5 -23.5q-205 0 -296 115.5t-91 295.5zM242 375q0 -29 11 -69t36.5 -88t83 -81t137.5 -33q84 0 162 44t125 114l-334 467q-121 -86 -171 -160.5t-50 -193.5zM371 1141q0 -61 29.5 -119.5t99.5 -157.5q55 35 92 61.5t82 92t45 137.5q0 59 -37 114.5t-127 55.5 t-137 -57.5t-47 -126.5z" />
<glyph unicode="'" horiz-adv-x="491" d="M186 1081v455h119v-455h-119z" />
<glyph unicode="(" horiz-adv-x="530" d="M94 630.5q0 436.5 281 917.5l98 -12q-121 -258 -186.5 -472t-65.5 -433t65.5 -433t186.5 -472l-98 -13q-281 481 -281 917.5z" />
<glyph unicode=")" horiz-adv-x="530" d="M57 -274q121 258 186.5 472t65.5 433t-65.5 433t-186.5 472l99 12q281 -480 281 -915q0 -437 -281 -920z" />
<glyph unicode="*" d="M172 1260l41 118l231 -108l-16 266h127l-16 -266l231 108l41 -118l-242 -80l150 -238l-107 -59l-120 235l-121 -235l-107 59l150 238z" />
<glyph unicode="+" horiz-adv-x="1228" d="M96 467v102h467v467h103v-467h467v-102h-467v-467h-103v467h-467z" />
<glyph unicode="," horiz-adv-x="491" d="M76 -270l98 454h152l-131 -454h-119z" />
<glyph unicode="-" horiz-adv-x="606" d="M94 512v119h418v-119h-418z" />
<glyph unicode="." horiz-adv-x="491" d="M166 0v201h160v-201h-160z" />
<glyph unicode="/" horiz-adv-x="530" d="M23 -14l383 1458h102l-383 -1458h-102z" />
<glyph unicode="0" d="M94 715q0 88 7.5 172t33 189.5t66.5 183t116.5 131t174 53.5t174 -53.5t116.5 -131t66.5 -183t33 -189.5t7.5 -172t-7.5 -172t-33 -189.5t-66.5 -183.5t-116.5 -131t-174 -53t-174 53t-116.5 131t-66.5 183.5t-33 189.5t-7.5 172zM221 714.5q0 -69.5 3 -131t18.5 -155.5 t42 -159.5t81 -115t126 -49.5t126 49.5t81 115t42 159.5t18.5 155.5t3 131t-3 131t-18.5 156t-42 160t-81 114.5t-126 49t-126 -49t-81 -114.5t-42 -160t-18.5 -156t-3 -131z" />
<glyph unicode="1" d="M246 1167l254 263h127v-1430h-127v1286l-185 -213z" />
<glyph unicode="2" d="M137 0v125l109 135q217 266 293 389q154 244 153 420q0 117 -55 186.5t-168 69.5q-66 0 -142.5 -32.5t-129.5 -80.5l-19 142q139 90 301 90q176 0 262 -111.5t86 -263.5q0 -94 -35.5 -200.5t-103 -212t-112.5 -166.5l-111 -144l-184 -227h565v-119h-709z" />
<glyph unicode="3" d="M100 43l11 139q35 -25 117.5 -51.5t148.5 -26.5q133 0 224 76t91 232q0 131 -90 200.5t-225 69.5h-119v119q86 0 151.5 9t132 35.5t103.5 83t37 140.5q0 27 -7 57.5t-32 82t-88 84t-158 32.5q-119 0 -235 -84l-10 135q37 27 121.5 47.5t140.5 20.5q111 0 192.5 -36 t125.5 -93.5t64.5 -116.5t20.5 -117q0 -248 -256 -321v-4q98 -16 182 -112.5t84 -248.5q0 -201 -120.5 -305t-341.5 -104q-150 0 -265 57z" />
<glyph unicode="4" d="M63 342v129l527 959h168v-969h162v-119h-162v-342h-127v342h-568zM174 461h457v842h-4z" />
<glyph unicode="5" d="M178 41l6 137q111 -74 246 -74q111 0 183.5 55.5t100 130.5t27.5 165q0 139 -74.5 227t-234.5 88q-78 0 -119 -10t-112 -39h-4l-4 -2v711h608v-119h-490v-451q74 29 158 29q115 0 198 -36t127 -99.5t63.5 -136t19.5 -162.5q0 -211 -116 -340t-337 -129q-123 0 -246 55z " />
<glyph unicode="6" d="M94 618q0 59 1 102.5t11.5 136.5t28 161.5t54 153.5t88 140.5t133.5 93.5t184 38q112 0 235 -39l-10 -143q-2 2 -22 12l-35 17q-14 7 -39 16.5t-54.5 13.5t-62.5 4q-78 0 -141.5 -31.5t-103 -80t-69.5 -114t-44.5 -123.5t-22.5 -121.5t-10 -95.5t-2 -54h4q90 200 295 200 h2q104 0 181 -47t117 -121.5t58.5 -150.5t18.5 -150q0 -78 -20.5 -152.5t-64.5 -143t-125 -111.5t-187 -43q-98 0 -173 44t-117 109.5t-67.5 155.5t-33 166t-7.5 157zM246 453q0 -188 75.5 -268.5t170.5 -80.5q104 0 183 83t79 270q0 45 -11.5 95t-38 106.5t-82 92 t-130.5 35.5q-111 0 -178.5 -93t-67.5 -240z" />
<glyph unicode="7" d="M133 1311v119h717v-125l-449 -1305h-143l465 1311h-590z" />
<glyph unicode="8" d="M90 373q0 88 36 161.5t90 117.5t87.5 63.5t58.5 29.5q-237 128 -237 363q0 117 62.5 195.5t142.5 109.5t164 31q100 0 174.5 -32t113.5 -84t56.5 -104.5t17.5 -107.5q0 -70 -23.5 -130t-68.5 -107.5t-75 -72t-77 -56.5q57 -31 91 -52.5t85.5 -67.5t78 -109.5t26.5 -141.5 q0 -68 -20.5 -132.5t-64.5 -125t-127 -98t-192 -37.5q-184 0 -291.5 112.5t-107.5 274.5zM225 369q0 -109 73 -187t200 -78q53 0 107 19.5t103.5 85.5t49.5 168q0 61 -24.5 112.5t-72 89t-88.5 61.5t-100 52l-41 -24q-207 -115 -207 -299zM260 1096q0 -92 66.5 -172 t189.5 -125q205 145 205 311q0 94 -69.5 154.5t-162 60.5t-161 -65.5t-68.5 -163.5z" />
<glyph unicode="9" d="M94 993q0 78 20.5 153t64.5 143.5t125 111.5t188 43q98 0 172.5 -44t116.5 -109.5t67.5 -156t33 -166t7.5 -157.5q0 -59 -1 -102t-11.5 -136.5t-28 -162t-54 -153.5t-88 -140.5t-133 -93t-184.5 -37.5q-112 0 -235 39l10 143q2 -2 22 -13l35 -17q15 -7 39.5 -16t54 -13.5 t62.5 -4.5q78 0 141.5 32t103.5 80t69.5 113.5t44 124t22.5 122t10 95t2 54.5h-4q-90 -201 -297 -201q-104 0 -181 47t-117 122t-58.5 151t-18.5 149zM229 973q0 -45 11.5 -95.5t38 -106.5t82 -92t131.5 -36q111 0 178 93.5t67 240.5q0 188 -75.5 268t-169.5 80 q-104 0 -183.5 -83t-79.5 -269z" />
<glyph unicode=":" horiz-adv-x="491" d="M166 0v201h160v-201h-160zM166 844v200h160v-200h-160z" />
<glyph unicode=";" horiz-adv-x="491" d="M76 -270l98 454h152l-131 -454h-119zM166 844v200h160v-200h-160z" />
<glyph unicode="&#x3c;" horiz-adv-x="1228" d="M96 463v110l1037 478v-111l-910 -422l910 -422v-110z" />
<glyph unicode="=" horiz-adv-x="1228" d="M96 268v103h1037v-103h-1037zM96 666v102h1037v-102h-1037z" />
<glyph unicode="&#x3e;" horiz-adv-x="1228" d="M96 -14v110l910 422l-910 422v111l1037 -478v-110z" />
<glyph unicode="?" horiz-adv-x="909" d="M182 1397q117 47 221 47q190 0 278.5 -98.5t88.5 -245.5q0 -94 -30.5 -171t-145.5 -241q-74 -102 -94.5 -165.5t-20.5 -172.5h-119q8 166 30 223.5t126 210.5q119 174 119 301q0 106 -61.5 173t-167.5 67q-109 0 -213 -68zM336 0v184h151v-184h-151z" />
<glyph unicode="@" horiz-adv-x="1638" d="M90 715q0 303 213 516t516 213q311 0 520 -168t209 -440q0 -193 -136 -362t-292 -169q-78 0 -128 35t-50 94h-2q-125 -129 -262 -129q-123 0 -191.5 79t-68.5 200q0 133 58.5 260t170 212t244.5 85q154 0 211 -160h6l45 127h102l-194 -559q-25 -80 -25 -84q0 -63 88 -66 q123 2 222.5 143.5t99.5 299.5q0 160 -89 277.5t-229.5 174t-308.5 56.5q-260 0 -443 -185.5t-183 -449.5t183 -449.5t443 -185.5q184 0 340 64.5t244 197.5h110q-100 -174 -286.5 -265t-407.5 -91q-303 0 -516 213t-213 516zM520 594q0 -195 168 -195q141 0 246.5 159 t105.5 304q0 184 -157 185q-152 0 -257.5 -150.5t-105.5 -302.5z" />
<glyph unicode="A" horiz-adv-x="1138" d="M27 0l475 1430h135l475 -1430h-135l-125 393h-569l-129 -393h-127zM319 512h494l-242 782h-4z" />
<glyph unicode="B" horiz-adv-x="1024" d="M164 0v1430h334q176 0 271 -101.5t95 -245.5q0 -240 -225 -331v-4q111 -31 183.5 -117t72.5 -232q0 -399 -485 -399h-246zM291 119h180q78 0 135.5 24.5t86 57t45 77t19.5 69t3 46.5q0 129 -73 209t-202 80h-194v-563zM291 801h174q115 0 189.5 70.5t74.5 195.5 q0 109 -63.5 176.5t-196.5 67.5h-178v-510z" />
<glyph unicode="C" horiz-adv-x="1099" d="M117 723q0 143 34.5 269t106.5 228.5t192.5 163t280.5 60.5q143 0 240 -47l-6 -144q-33 27 -102.5 49.5t-141.5 22.5q-41 0 -88 -8t-119 -45t-127 -97.5t-95 -179t-40 -276.5q0 -141 33.5 -254t83 -178.5t115 -108.5t123 -58.5t112.5 -15.5q109 1 242 64l6 -137 q-123 -45 -244 -45q-154 0 -272.5 60t-190.5 164.5t-107.5 234.5t-35.5 278z" />
<glyph unicode="D" horiz-adv-x="1138" d="M164 0v1430h186q354 0 526.5 -173.5t172.5 -521.5q0 -330 -167 -532.5t-497 -202.5h-221zM291 1311v-1192h131q233 0 362 160.5t129 435.5q0 84 -7 149.5t-36.5 154.5t-82 148.5t-151.5 101.5t-237 42h-108z" />
<glyph unicode="E" horiz-adv-x="909" d="M164 0v1430h606v-119h-479v-508h457v-119h-457v-565h502v-119h-629z" />
<glyph unicode="F" horiz-adv-x="833" d="M164 0v1430h584v-119h-457v-508h434v-119h-434v-684h-127z" />
<glyph unicode="G" horiz-adv-x="1214" d="M104 729q0 293 167 504t454 211q78 0 169 -23.5t130 -46.5l-6 -139q-43 35 -133 62.5t-168 27.5q-82 0 -162 -32.5t-152.5 -100.5t-117.5 -190.5t-45 -284.5q0 -106 25.5 -207.5t79.5 -196t154.5 -152t235.5 -57.5q115 0 197 43v502h-256v119h383v-705q-141 -77 -325 -77 h-5q-143 0 -257 52t-180.5 131t-110.5 182.5t-60.5 195.5t-16.5 182z" />
<glyph unicode="H" horiz-adv-x="1138" d="M164 0v1430h127v-627h557v627h127v-1430h-127v684h-557v-684h-127z" />
<glyph unicode="I" horiz-adv-x="454" d="M164 0v1430h127v-1430h-127z" />
<glyph unicode="J" horiz-adv-x="606" d="M43 0v135q55 -23 96 -22q49 0 84 18.5t52.5 42t26.5 66.5t11 74.5t2 82.5v1033h127v-1037q0 -72 -6 -125t-24.5 -108.5t-50 -92t-87 -59t-131.5 -22.5q-39 0 -100 14z" />
<glyph unicode="K" horiz-adv-x="1024" d="M164 0v1430h127v-627h4l516 627h156l-572 -680l619 -750h-168l-551 700h-4v-700h-127z" />
<glyph unicode="L" horiz-adv-x="796" d="M164 0v1430h127v-1311h465v-119h-592z" />
<glyph unicode="M" horiz-adv-x="1515" d="M164 0v1430h194l398 -1242h4l397 1242h195v-1430h-119v1311h-4l-422 -1311h-96l-424 1311h-4v-1311h-119z" />
<glyph unicode="N" horiz-adv-x="1214" d="M164 0v1430h164l600 -1270h4v1270h119v-1430h-164l-600 1262h-4v-1262h-119z" />
<glyph unicode="O" horiz-adv-x="1216" d="M104 715q0 45 1 80.5t11.5 116.5t28 143.5t54.5 139.5t89 128t135 86t185.5 35t185.5 -35t135 -86t89 -128t54.5 -139.5t27.5 -143.5t11 -116.5t1 -80.5t-1 -81t-11 -117t-27.5 -143.5t-54.5 -139t-89 -128t-135 -86t-185.5 -34.5t-185.5 34.5t-135 86t-89 128t-54.5 139 t-28 143.5t-11.5 117t-1 81zM240 715q0 -41 1 -71t8 -98.5t19.5 -119.5t40 -115.5t65.5 -106.5t98 -71t136 -29t136.5 29t98.5 71t65.5 106.5t40 115.5t19.5 119.5t8 98.5t1 71t-1 70.5t-8 98t-19.5 120t-40 116t-65.5 106.5t-98.5 70.5t-136.5 28.5t-136 -28.5t-98 -70.5 t-65.5 -106.5t-40 -116t-19.5 -120t-8 -98t-1 -70.5z" />
<glyph unicode="P" horiz-adv-x="948" d="M164 1430h268q436 0 436 -404q0 -211 -117.5 -307t-281.5 -96h-178v-623h-127v1430zM291 741h129q152 0 232.5 63.5t80.5 221.5q0 82 -24.5 139.5t-56 85t-85 42t-84 16.5t-82.5 2h-110v-570z" />
<glyph unicode="Q" horiz-adv-x="1216" d="M104 715q0 45 1 80.5t11.5 116.5t28 143.5t54.5 139.5t89 128t135 86t185.5 35t185.5 -35t135 -86t89 -128t54.5 -139.5t27.5 -143.5t11 -116.5t1 -80.5q0 -553 -303 -686l266 -291h-162l-229 256q-4 0 -29.5 -4t-46.5 -4q-102 0 -185 34.5t-135 86t-89 128t-54.5 139 t-28 143.5t-11.5 117t-1 81zM240 715q0 -41 1 -71t8 -98.5t19.5 -119.5t40 -115.5t65.5 -106.5t98 -71t136 -29t136.5 29t98.5 71t65.5 106.5t40 115.5t19.5 119.5t8 98.5t1 71t-1 70.5t-8 98t-19.5 120t-40 116t-65.5 106.5t-98.5 70.5t-136.5 28.5t-136 -28.5t-98 -70.5 t-65.5 -106.5t-40 -116t-19.5 -120t-8 -98t-1 -70.5z" />
<glyph unicode="R" horiz-adv-x="1024" d="M164 0v1430h330q180 0 278 -101.5t98 -263.5q0 -164 -82.5 -245t-197.5 -101v-4q109 -23 145 -123l215 -592h-135l-174 489q-35 100 -74 138.5t-114 38.5h-162v-666h-127zM291 784h174q72 0 126 26t80.5 58.5t42 76.5t18.5 68.5t3 45.5q0 252 -278 252h-166v-527z" />
<glyph unicode="S" horiz-adv-x="872" d="M104 1098q0 90 32 157.5t75 102.5t99.5 55.5t94 25.5t72.5 5q104 0 225 -45l-6 -144q-117 70 -227 70q-82 0 -155.5 -49t-73.5 -160q0 -96 43 -151.5t153 -135.5q207 -152 269.5 -230.5t62.5 -217.5q0 -178 -108.5 -286.5t-274.5 -108.5h-5q-161 0 -265 67l8 148 q106 -96 252 -97q80 0 136 32t79.5 79t33 83t9.5 64q0 61 -15.5 106.5t-57.5 88.5t-80 71.5t-118 82.5q-150 100 -204 183t-54 204z" />
<glyph unicode="T" horiz-adv-x="872" d="M41 1311v119h790v-119h-331v-1311h-127v1311h-332z" />
<glyph unicode="U" horiz-adv-x="1175" d="M164 526v904h127v-902q0 -72 6 -128t24.5 -113.5t50 -95t87 -62.5t129.5 -25q96 0 158.5 37t91 105.5t38 132t9.5 149.5v902h127v-904q0 -541 -424 -540q-233 0 -328.5 143t-95.5 397z" />
<glyph unicode="V" horiz-adv-x="1062" d="M33 1430h135l350 -1254h4l381 1254h127l-450 -1430h-119z" />
<glyph unicode="W" horiz-adv-x="1593" d="M25 1430h135l256 -1278h4l297 1278h174l268 -1278h4l279 1278h127l-330 -1430h-160l-280 1286h-4l-303 -1286h-150z" />
<glyph unicode="X" horiz-adv-x="1062" d="M20 0l449 758l-393 672h151l326 -570l332 570h135l-399 -672l421 -758h-151l-348 649l-371 -649h-152z" />
<glyph unicode="Y" horiz-adv-x="1024" d="M88 1430h135l291 -693l287 693h135l-361 -809v-621h-126v621z" />
<glyph unicode="Z" horiz-adv-x="909" d="M74 0v127l612 1184h-592v119h727v-123l-614 -1188h629v-119h-762z" />
<glyph unicode="[" horiz-adv-x="530" d="M160 -287v1835h260v-94h-150v-1647h150v-94h-260z" />
<glyph unicode="\" horiz-adv-x="530" d="M23 1444h102l383 -1458h-102z" />
<glyph unicode="]" horiz-adv-x="530" d="M111 -193h149v1647h-149v94h260v-1835h-260v94z" />
<glyph unicode="^" horiz-adv-x="1228" d="M90 502l473 928h103l473 -928h-119l-406 801l-405 -801h-119z" />
<glyph unicode="_" horiz-adv-x="1024" d="M0 -154h1024v-102h-1024v102z" />
<glyph unicode="`" horiz-adv-x="380" d="M-14 1491h143l156 -291h-103z" />
<glyph unicode="a" horiz-adv-x="909" d="M84 289q0 94 40 162.5t92 101.5t132 51.5t127 21.5t113 3h76q0 55 -1 85.5t-12.5 82t-33 79t-65.5 50t-106 22.5q-131 0 -262 -108l-18 127q61 33 95 49t85 29.5t107 13.5q321 0 321 -346v-480q0 -78 12 -233h-106l-8 150h-4q-53 -86 -123 -125t-170 -39q-121 0 -206 88 t-85 215zM211 289q0 -74 52 -133.5t140 -59.5q23 0 48.5 4t66.5 22.5t70.5 49.5t52.5 91t23 140v123q-70 0 -104 -1t-92 -5t-87 -12t-68 -25.5t-57 -42t-31.5 -63.5t-13.5 -88z" />
<glyph unicode="b" horiz-adv-x="948" d="M123 0q8 180 8 346v1190h119v-627h4q96 150 264 150q123 0 205 -86t111.5 -192.5t29.5 -219.5q0 -43 -1 -79t-9 -98t-21.5 -111.5t-40 -105.5t-62.5 -94t-92 -62.5t-126 -24.5q-92 0 -152.5 37.5t-121.5 119.5h-5v-143h-110zM242 510q0 -414 258 -414q237 0 237 426 t-239 426q-61 0 -107.5 -21.5t-73 -63.5t-43 -81t-23.5 -98t-8 -91t-1 -83z" />
<glyph unicode="c" horiz-adv-x="757" d="M84 518q0 248 110.5 394.5t321.5 146.5q107 0 195 -37l-6 -135q-63 53 -189 53q-131 0 -218 -96t-87 -291q0 -135 34 -230.5t88 -139.5t102 -61.5t100 -17.5q129 0 176 56l10 -135q-88 -39 -203 -39q-180 0 -307 138t-127 394z" />
<glyph unicode="d" horiz-adv-x="948" d="M84 561q0 113 29.5 219.5t111.5 192.5t205 86q182 0 264 -150h4v627h119v-1190q0 -166 8 -346h-110v143h-4q-66 -82 -124.5 -119.5t-150.5 -37.5q-70 0 -126 24.5t-92 62.5t-62.5 94t-40 105.5t-21.5 111.5t-9 98t-1 79zM211 522q0 -426 238 -426q258 0 258 414 q0 51 -1 83t-8.5 91t-24 98t-43 81t-72.5 63.5t-107 21.5q-240 0 -240 -426z" />
<glyph unicode="e" horiz-adv-x="872" d="M84 522q0 272 109.5 404.5t261.5 132.5q88 0 151.5 -37t97 -91t54 -137t25.5 -152t5 -159h-577q0 -109 27.5 -188.5t61.5 -115.5t83 -57.5t72.5 -23.5t50.5 -2q53 0 117.5 23.5t107.5 62.5l6 -137q-111 -59 -243 -59q-84 0 -152 25.5t-110 61.5t-71.5 92t-44 101 t-22.5 105.5t-9 87t-1 63.5zM211 594h451q0 188 -63.5 271t-149.5 83q-111 0 -174.5 -116.5t-63.5 -237.5z" />
<glyph unicode="f" horiz-adv-x="530" d="M31 934v110h162v224q0 137 54 215t202 78q39 0 90 -11v-118q-47 18 -95 18q-133 0 -133 -160v-246h185v-110h-185v-934h-118v934h-162z" />
<glyph unicode="g" horiz-adv-x="948" d="M84 483q0 43 1 79t9 98.5t21.5 111.5t40 105.5t62.5 94.5t92.5 62.5t125.5 24.5q180 0 275 -168h4v153h110q-8 -180 -8 -346v-673q0 -479 -391 -480q-78 0 -132 11.5t-165 46.5l8 133q139 -80 287 -80q274 0 274 344v143h-4q-91 -157 -262 -157h-2q-123 0 -205 86 t-111.5 192t-29.5 219zM211 522q0 -426 240 -426q139 0 197.5 113t58.5 326q0 413 -257 413h-1q-238 0 -238 -426z" />
<glyph unicode="h" horiz-adv-x="948" d="M139 0v1536h119v-645h4q14 33 38 64.5t84 67.5t136 36q82 0 140.5 -33t86 -72t43 -99t17.5 -89t2 -66v-700h-119v705q0 33 -1 54t-11 61t-29.5 64.5t-58.5 44t-94 19.5q-106 0 -172 -87t-66 -212v-649h-119z" />
<glyph unicode="i" horiz-adv-x="417" d="M137 1276v184h144v-184h-144zM150 0v1044h118v-1044h-118z" />
<glyph unicode="j" horiz-adv-x="417" d="M-18 -324q29 -12 55 -12q35 0 54.5 4t39 36.5t19.5 98.5v1241h118v-1224q0 -41 -2 -71t-13 -72t-32.5 -67.5t-62.5 -45t-99 -19.5q-45 0 -77 13v118zM137 1276v184h144v-184h-144z" />
<glyph unicode="k" horiz-adv-x="872" d="M143 0v1536h119v-911l395 419h152l-442 -462l483 -582h-160l-424 530h-4v-530h-119z" />
<glyph unicode="l" horiz-adv-x="417" d="M150 0v1536h118v-1536h-118z" />
<glyph unicode="m" horiz-adv-x="1404" d="M131 1044h111q6 -68 8 -153h4q29 68 90.5 118t151.5 50q61 0 105 -16.5t70.5 -47t38 -51t25.5 -53.5q104 168 260 168q145 0 208 -98.5t63 -241.5v-719h-119v705q0 243 -169 243h-1q-104 -2 -159.5 -81t-55.5 -197v-670h-119v727q0 102 -42 161.5t-116 59.5 q-98 0 -162.5 -87t-64.5 -212v-649h-119v721q0 61 -4 174t-4 149z" />
<glyph unicode="n" horiz-adv-x="948" d="M131 1044h111q6 -68 8 -153h4q92 168 266 168q82 0 140.5 -33t86 -72t43 -99t17.5 -89t2 -66v-700h-119v705q0 33 -1 54t-11 61t-29.5 64.5t-58.5 44t-94 19.5q-106 0 -172 -87t-66 -212v-649h-119v721q0 61 -4 174t-4 149z" />
<glyph unicode="o" horiz-adv-x="950" d="M84 522.5q0 106.5 19.5 195.5t61.5 169t122 126t188.5 46t188 -46t121.5 -126t61.5 -169t19.5 -195.5t-19.5 -195.5t-61.5 -169t-121.5 -126t-188 -46t-188.5 46t-122 126t-61.5 169t-19.5 195.5zM211 522q0 -426 264 -426t264 426t-264 426t-264 -426z" />
<glyph unicode="p" horiz-adv-x="948" d="M123 1044h110v-153h5q109 168 274 168q80 0 143.5 -31t99.5 -84t60.5 -107.5t33.5 -119t12 -98t3 -62.5q0 -158 -32.5 -281.5t-113.5 -206.5t-200 -83q-186 0 -264 145h-4v-573h-119v1140q0 166 -8 346zM242 535q0 -51 1 -83t8 -91.5t23.5 -98.5t43 -81t72.5 -63.5 t108 -21.5q239 0 239 426t-237 426q-258 0 -258 -413z" />
<glyph unicode="q" horiz-adv-x="948" d="M84 483q0 43 1 79t9 98.5t21.5 111.5t40 105.5t62.5 94.5t92.5 62.5t125.5 24.5q180 0 275 -168h4v153h110q-8 -180 -8 -346v-1140h-119v585h-4q-91 -157 -262 -157h-2q-123 0 -205 86t-111.5 192.5t-29.5 218.5zM211 522q0 -426 240 -426q139 0 197.5 113t58.5 326 q0 413 -257 413h-1q-238 0 -238 -426z" />
<glyph unicode="r" horiz-adv-x="569" d="M131 1044h111q2 -37 5 -100t3 -65h4q53 104 118.5 142t159.5 38v-127q-141 0 -207.5 -65.5t-66.5 -209.5v-657h-119v721q0 61 -4 174t-4 149z" />
<glyph unicode="s" horiz-adv-x="720" d="M74 35l16 133q33 -23 102.5 -47.5t135.5 -24.5q82 0 137 54.5t55 125.5q0 70 -42 111t-144 92q-141 70 -193.5 128.5t-52.5 162.5q0 137 95.5 213t211.5 76q97 0 193 -31l-17 -123q-113 43 -178 43q-86 0 -132 -51t-46 -115q0 -68 32 -99.5t146 -94.5l84 -46 q21 -12 65 -43.5t59 -56t30.5 -64.5t15.5 -89q0 -139 -87 -221t-222 -82q-131 0 -264 49z" />
<glyph unicode="t" horiz-adv-x="569" d="M37 934v110h156v209l118 37v-246h213v-110h-213v-680q0 -76 23.5 -117t91.5 -41q49 0 98 23v-119q-41 -14 -137 -14q-195 0 -194 235v713h-156z" />
<glyph unicode="u" horiz-adv-x="948" d="M139 315v729h119v-704q0 -33 1 -54.5t11.5 -61.5t29.5 -64.5t58 -44t95 -19.5q106 0 171.5 87t65.5 212v649h119v-720q0 -61 4 -174t4 -150h-110q-6 68 -9 154h-4q-14 -51 -82.5 -109.5t-183.5 -58.5q-158 0 -223.5 93t-65.5 236z" />
<glyph unicode="v" horiz-adv-x="798" d="M23 1044h127l247 -909h4l256 909h119l-305 -1044h-143z" />
<glyph unicode="w" horiz-adv-x="1327" d="M23 1044h127l219 -917h4l211 917h151l230 -917h4l217 917h119l-273 -1044h-147l-226 909h-4l-213 -909h-139z" />
<glyph unicode="x" horiz-adv-x="796" d="M23 0l294 563l-270 481h143l207 -389l215 389h136l-283 -489l309 -555h-143l-242 459l-231 -459h-135z" />
<glyph unicode="y" horiz-adv-x="757" d="M20 1044h127l234 -868h4l233 868h119l-342 -1239q-18 -70 -30.5 -103.5t-39 -76.5t-67.5 -61.5t-100 -18.5q-37 0 -80 13l6 120q32 -22 80 -22h4q72 0 106 121l54 198z" />
<glyph unicode="z" horiz-adv-x="757" d="M61 0v119l500 815h-483v110h610v-118l-500 -815h508v-111h-635z" />
<glyph unicode="{" horiz-adv-x="530" d="M70 584v94q72 0 97.5 55t25.5 209v369q0 125 51 181t157 56h93v-94h-62q-66 0 -97.5 -34t-31.5 -111v-432q0 -207 -131 -244v-4q131 -37 131 -244v-432q0 -78 32 -112t97 -34h62v-94h-93q-106 0 -157 56.5t-51 181.5v368q0 154 -26 209.5t-97 55.5z" />
<glyph unicode="|" horiz-adv-x="454" d="M176 -512v2048h103v-2048h-103z" />
<glyph unicode="}" horiz-adv-x="530" d="M37 -193h61q66 0 97.5 34t31.5 112v432q0 207 131 244v4q-131 37 -131 244v432q0 78 -31.5 111.5t-97.5 33.5h-61v94h92q106 0 157.5 -56t51.5 -181v-369q0 -154 25.5 -209t97.5 -55v-94q-72 0 -97.5 -55.5t-25.5 -209.5v-368q0 -125 -51 -181.5t-158 -56.5h-92v94z" />
<glyph unicode="~" horiz-adv-x="1228" d="M141 463q92 176 256 176q96 0 228 -66q145 -73 207 -73h2q39 0 74.5 24.5t55 50t50.5 72.5l73 -74q-41 -55 -67.5 -85.5t-77.5 -60.5t-111 -30q-86 0 -208 68q-127 72 -220 72q-66 0 -107.5 -39t-80.5 -109z" />
<glyph unicode="&#xa1;" horiz-adv-x="720" d="M285 -385l20 1077h111l20 -1077h-151zM285 860v184h151v-184h-151z" />
<glyph unicode="&#xa2;" d="M150 518q0 248 110.5 394.5t321.5 146.5h36l35 229h86l-37 -239q53 -12 74 -27l-8 -135q-35 29 -86 41l-119 -819q25 -4 37 -5q129 0 176 56l10 -135q-53 -39 -202 -39q-6 0 -20.5 1t-20.5 1l-37 -250h-86l41 268q-139 41 -225 172t-86 340zM276 553q0 -338 203 -422 l121 809h-16q-133 0 -220.5 -96t-87.5 -291z" />
<glyph unicode="&#xa3;" d="M129 0v119h145v588h-145v110h145q0 197 11.5 286t50.5 157q53 94 142 139t184 45q147 0 235 -53l-20 -129q-82 63 -209 63q-143 0 -205 -101.5t-62 -238.5v-168h328v-110h-328v-588h476v-119h-748z" />
<glyph unicode="&#xa4;" d="M49 340l96 100q-96 115 -96 274.5t96 274.5l-96 101l68 67l98 -98q121 98 276.5 98t276.5 -98l98 98l68 -67l-96 -101q96 -115 96 -274.5t-96 -274.5l96 -100l-68 -68l-98 99q-121 -98 -276 -99h-2q-155 0 -275 99l-98 -99zM152 714.5q0 -141.5 99 -240.5t240.5 -99 t240.5 99t99 240.5t-99 241t-240.5 99.5t-240.5 -99.5t-99 -241z" />
<glyph unicode="&#xa5;" d="M68 1430h135l289 -695l288 695h135l-335 -756h239v-86h-264v-187h264v-86h-264v-315h-127v315h-264v86h264v187h-264v86h239z" />
<glyph unicode="&#xa6;" horiz-adv-x="454" d="M176 -358v716h103v-716h-103zM176 666v716h103v-716h-103z" />
<glyph unicode="&#xa7;" d="M162 -193l22 136q41 -29 115 -59.5t143 -30.5q92 0 163 51t71 149q0 43 -12.5 74t-45 59.5t-56 44t-81.5 48.5q-150 84 -219 153.5t-69 183.5q0 162 172 295q-37 23 -59.5 42.5t-50.5 72.5t-28 123q0 109 84 202t244 93q117 0 236 -55l-21 -127l-14 6q-119 57 -195 57 q-98 0 -152.5 -47t-54.5 -119q0 -39 9.5 -66.5t45 -60.5t64.5 -52l107 -71q66 -41 100.5 -66.5t72.5 -64.5t53 -85t15 -105q0 -162 -151 -285q37 -33 60.5 -56.5t48 -77.5t24.5 -116q0 -121 -90 -220t-271 -99h-3q-105 0 -277 73zM311 641q0 -72 55.5 -135.5t231.5 -149.5 q37 43 54.5 70t33.5 68t16 84q0 145 -264 278q-35 -29 -55.5 -48.5t-46 -67.5t-25.5 -99z" />
<glyph unicode="&#xa8;" horiz-adv-x="380" d="M-23 1257v201h119v-201h-119zM285 1257v201h118v-201h-118z" />
<glyph unicode="&#xa9;" horiz-adv-x="1638" d="M90 715q0 303 213 516t516 213t516 -213t213 -516t-213 -516t-516 -213t-516 213t-213 516zM193 715q0 -264 183 -449.5t443 -185.5t443.5 185.5t183.5 449.5t-183.5 449.5t-443.5 185.5t-443 -185.5t-183 -449.5zM408 715q0 199 112.5 323.5t306.5 124.5q141 0 242 -79 t121 -216h-103q-16 88 -86.5 144.5t-173.5 56.5q-150 0 -233.5 -99.5t-83.5 -254.5q0 -145 88 -250t229 -105q104 0 174 58.5t86 150.5h103q-33 -137 -130 -220t-233 -83q-186 0 -302.5 128t-116.5 321z" />
<glyph unicode="&#xaa;" horiz-adv-x="591" d="M43 981q0 49 16.5 86t48 58.5t63.5 35t76 19.5t71.5 7t64.5 1h49q0 29 -1 45t-8 45t-21.5 45t-42 29.5t-68.5 13.5t-83 -16.5t-60.5 -28.5t-26.5 -21l-12 89q106 55 186 55q63 0 108.5 -18.5t67 -41t33.5 -56.5t13 -50t1 -39v-289q0 -45 8 -139h-84l-6 90h-4 q-63 -98 -176 -98q-84 0 -148.5 48t-64.5 130zM137 993q0 -41 34 -76.5t91 -35.5q20 0 43 5t54.5 20.5t52 53.5t20.5 93v65q-55 0 -78 -1l-68 -3q-44 -2 -62.5 -10t-43 -21.5t-34 -36t-9.5 -53.5z" />
<glyph unicode="&#xab;" d="M176 541l236 413h110l-219 -413l219 -430h-110zM461 541l235 413h111l-219 -413l219 -430h-111z" />
<glyph unicode="&#xac;" horiz-adv-x="1228" d="M96 666v102h1037v-547h-103v445h-934z" />
<glyph unicode="&#xad;" horiz-adv-x="606" d="M94 512v119h418v-119h-418z" />
<glyph unicode="&#xae;" horiz-adv-x="1638" d="M90 715q0 303 213 516t516 213t516 -213t213 -516t-213 -516t-516 -213t-516 213t-213 516zM193 715q0 -264 183 -449.5t443 -185.5t443.5 185.5t183.5 449.5t-183.5 449.5t-443.5 185.5t-443 -185.5t-183 -449.5zM535 297v836h321q270 0 270 -232q0 -104 -58 -161.5 t-150 -71.5l245 -371h-110l-246 371h-178v-371h-94zM629 1047v-293h207q196 0 196 146t-196 147h-207z" />
<glyph unicode="&#xaf;" horiz-adv-x="380" d="M-53 1298v95h487v-95h-487z" />
<glyph unicode="&#xb0;" horiz-adv-x="819" d="M113 1147q0 123 87 210t209.5 87t210 -87t87.5 -210t-87.5 -210t-210 -87t-209.5 87t-87 210zM207 1147q0 -84 59.5 -143.5t143.5 -59.5t143 59.5t59 143.5t-59 143.5t-143 59.5t-143.5 -59.5t-59.5 -143.5z" />
<glyph unicode="&#xb1;" horiz-adv-x="1228" d="M96 0v102h1037v-102h-1037zM96 561v103h467v372h103v-372h467v-103h-467v-373h-103v373h-467z" />
<glyph unicode="&#xb2;" horiz-adv-x="638" d="M86 578v75l70 80q176 201 233 299q57 102 57 178q4 63 -32.5 105.5t-106.5 42.5q-98 0 -176 -68l-12 99q72 55 196 55q119 0 176.5 -66.5t57.5 -158.5q0 -162 -236 -435l-108 -120h348v-86h-467z" />
<glyph unicode="&#xb3;" horiz-adv-x="638" d="M80 604l6 96q82 -45 164 -45q88 0 147.5 43t59.5 127q0 76 -58.5 116t-146.5 40h-72v86q268 0 269 152q0 16 -4.5 32.5t-19.5 44t-55 45t-100 17.5q-78 0 -153 -49l-6 94q25 16 80 28.5t90 12.5q141 0 205.5 -68.5t64.5 -148.5q0 -150 -166 -193v-4q66 -8 120 -66.5 t54 -148.5q0 -121 -80 -183.5t-229 -62.5q-109 0 -170 35z" />
<glyph unicode="&#xb4;" horiz-adv-x="380" d="M96 1200l156 291h143l-196 -291h-103z" />
<glyph unicode="&#xb5;" horiz-adv-x="948" d="M139 -442v1486h119v-704q0 -33 1 -54.5t11.5 -61.5t29.5 -64.5t58 -44t95 -19.5q106 0 171.5 87t65.5 212v649h119v-720q0 -61 4 -174t4 -150h-110q-6 68 -9 154h-4q-14 -51 -82.5 -109.5t-183.5 -58.5q-133 0 -166 63h-4v-491h-119z" />
<glyph unicode="&#xb6;" d="M61 1042q0 186 116 287t325 101h379v-1682h-103v1587h-205v-1587h-102v920q-174 4 -292 109.5t-118 264.5z" />
<glyph unicode="&#xb7;" horiz-adv-x="491" d="M133 631q0 45 34 78.5t79 33.5t78.5 -33.5t33.5 -78.5t-33.5 -79t-78.5 -34t-79 34t-34 79z" />
<glyph unicode="&#xb8;" horiz-adv-x="380" d="M0 -377l20 58q82 -29 136 -29q129 0 129 94q0 41 -30 63.5t-71 22.5q-29 0 -94 -27l-27 29l117 166h74l-88 -113l4 -4q35 10 61 11q68 0 116 -36t48 -102q0 -84 -64.5 -125t-154.5 -41q-127 0 -176 33z" />
<glyph unicode="&#xb9;" horiz-adv-x="638" d="M123 1286l166 158h94v-866h-94v763l-121 -129z" />
<glyph unicode="&#xba;" horiz-adv-x="638" d="M53 1124q0 137 60.5 228.5t206 91.5t206 -91t60.5 -229q0 -63 -12.5 -117.5t-41 -101.5t-83 -74.5t-130 -27.5t-130 27.5t-83 74.5t-41 101.5t-12.5 117.5zM147 1124q0 -31 3.5 -57.5t17.5 -76.5t53 -79.5t98.5 -29.5t98.5 29.5t53 79.5t17.5 77t3.5 57q0 29 -3.5 55.5 t-17.5 77t-53 80t-98.5 29.5t-98.5 -29.5t-53 -80t-17.5 -77t-3.5 -55.5z" />
<glyph unicode="&#xbb;" d="M176 111l219 413l-219 430h111l235 -430l-235 -413h-111zM461 111l219 413l-219 430h110l236 -430l-236 -413h-110z" />
<glyph unicode="&#xbc;" horiz-adv-x="1476" d="M123 1286l166 158h94v-866h-94v763l-121 -129zM301 -68l641 1565h111l-641 -1565h-111zM797 197v86l344 575h119v-575h94v-86h-94v-197h-95v197h-368zM883 283h282v465h-4z" />
<glyph unicode="&#xbd;" horiz-adv-x="1476" d="M123 1286l166 158h94v-866h-94v763l-121 -129zM326 -68l641 1565h110l-641 -1565h-110zM887 0v76l69 80q176 201 234 299q57 102 57 178v12q0 55 -32 93q-37 42 -107 42q-96 0 -176 -67l-12 98q72 55 196 55q119 0 176.5 -66.5t57.5 -158.5q0 -162 -236 -434l-108 -121 h348v-86h-467z" />
<glyph unicode="&#xbe;" horiz-adv-x="1476" d="M80 604l6 96q82 -45 164 -45q88 0 147.5 43t59.5 127q0 76 -58.5 116t-146.5 40h-72v86q268 0 269 152q0 16 -4.5 32.5t-19.5 44t-55 45t-100 17.5q-78 0 -153 -49l-6 94q25 16 80 28.5t90 12.5q141 0 205.5 -68.5t64.5 -148.5q0 -150 -166 -193v-4q66 -8 120 -66.5 t54 -148.5q0 -121 -80 -183.5t-229 -62.5q-109 0 -170 35zM375 -68l641 1565h110l-641 -1565h-110zM840 197v86l344 575h119v-575h94v-86h-94v-197h-95v197h-368zM926 283h282v465h-4z" />
<glyph unicode="&#xbf;" horiz-adv-x="909" d="M139 -55q0 94 31 171t145 240q74 102 94.5 166t20.5 172h119q-8 -166 -29.5 -223t-126.5 -211q-119 -174 -119 -301q0 -106 61.5 -173t168.5 -67q109 0 213 68l10 -139q-117 -47 -221 -47q-190 0 -278.5 98t-88.5 246zM422 860v184h151v-184h-151z" />
<glyph unicode="&#xc0;" horiz-adv-x="1138" d="M27 0l475 1430h135l475 -1430h-135l-125 393h-569l-129 -393h-127zM319 512h494l-242 782h-4zM365 1780h143l156 -291h-103z" />
<glyph unicode="&#xc1;" horiz-adv-x="1138" d="M27 0l475 1430h135l475 -1430h-135l-125 393h-569l-129 -393h-127zM319 512h494l-242 782h-4zM475 1489l156 291h143l-196 -291h-103z" />
<glyph unicode="&#xc2;" horiz-adv-x="1138" d="M27 0l475 1430h135l475 -1430h-135l-125 393h-569l-129 -393h-127zM311 1489l199 291h119l198 -291h-118l-140 209l-139 -209h-119zM319 512h494l-242 782h-4z" />
<glyph unicode="&#xc3;" horiz-adv-x="1138" d="M27 0l475 1430h135l475 -1430h-135l-125 393h-569l-129 -393h-127zM295 1528q0 27 8 65.5t50 88t112 49.5q43 0 125 -48q74 -43 96 -43q27 0 49.5 29t22.5 72h86q0 -61 -40 -132t-118 -71q-57 0 -129 49q-63 41 -92 41q-39 0 -61.5 -36.5t-22.5 -63.5h-86zM319 512h494 l-242 782h-4z" />
<glyph unicode="&#xc4;" horiz-adv-x="1138" d="M27 0l475 1430h135l475 -1430h-135l-125 393h-569l-129 -393h-127zM319 512h494l-242 782h-4zM356 1546v201h119v-201h-119zM664 1546v201h118v-201h-118z" />
<glyph unicode="&#xc5;" horiz-adv-x="1138" d="M27 0l475 1430h135l475 -1430h-135l-125 393h-569l-129 -393h-127zM319 512h494l-242 782h-4zM371 1671q0 82 58 140.5t140 58.5t140.5 -58.5t58.5 -140.5t-58.5 -140t-140.5 -58t-140 58t-58 140zM440 1671q0 -53 38 -91t91.5 -38t91 38t37.5 91t-37.5 91t-91 38 t-91.5 -38t-38 -91z" />
<glyph unicode="&#xc6;" horiz-adv-x="1554" d="M27 0l731 1430h657v-119h-454v-508h432v-119h-432v-565h477v-119h-604v393h-463l-201 -393h-143zM428 512h406v815h-5z" />
<glyph unicode="&#xc7;" horiz-adv-x="1099" d="M117 723q0 143 34.5 269t106.5 228.5t192.5 163t280.5 60.5q143 0 240 -47l-6 -144q-33 27 -102.5 49.5t-141.5 22.5q-41 0 -88 -8t-119 -45t-127 -97.5t-95 -179t-40 -276.5q0 -141 33.5 -254t83 -178.5t115 -108.5t123 -58.5t112.5 -15.5q109 0 242 64l6 -137 q-123 -45 -244 -45h-21l-77 -99l4 -4q35 10 61 11q68 0 116 -36t48 -102q0 -84 -64.5 -125t-154.5 -41q-127 0 -176 33l20 58q82 -29 135 -29q129 0 129 94q0 41 -29.5 63.5t-70.5 22.5q-28 0 -94 -27l-27 29l111 158q-172 23 -292 132t-172 262t-52 337z" />
<glyph unicode="&#xc8;" horiz-adv-x="909" d="M164 0v1430h606v-119h-479v-508h457v-119h-457v-565h502v-119h-629zM291 1780h143l156 -291h-103z" />
<glyph unicode="&#xc9;" horiz-adv-x="909" d="M164 0v1430h606v-119h-479v-508h457v-119h-457v-565h502v-119h-629zM401 1489l156 291h143l-196 -291h-103z" />
<glyph unicode="&#xca;" horiz-adv-x="909" d="M164 0v1430h606v-119h-479v-508h457v-119h-457v-565h502v-119h-629zM238 1489l198 291h119l199 -291h-119l-139 209l-140 -209h-118z" />
<glyph unicode="&#xcb;" horiz-adv-x="909" d="M164 0v1430h606v-119h-479v-508h457v-119h-457v-565h502v-119h-629zM283 1546v201h118v-201h-118zM590 1546v201h119v-201h-119z" />
<glyph unicode="&#xcc;" horiz-adv-x="454" d="M23 1780h143l156 -291h-103zM164 0v1430h127v-1430h-127z" />
<glyph unicode="&#xcd;" horiz-adv-x="454" d="M133 1489l156 291h143l-196 -291h-103zM164 0v1430h127v-1430h-127z" />
<glyph unicode="&#xce;" horiz-adv-x="454" d="M-31 1489l199 291h119l198 -291h-118l-140 209l-139 -209h-119zM164 0v1430h127v-1430h-127z" />
<glyph unicode="&#xcf;" horiz-adv-x="454" d="M14 1546v201h119v-201h-119zM164 0v1430h127v-1430h-127zM322 1546v201h118v-201h-118z" />
<glyph unicode="&#xd0;" horiz-adv-x="1138" d="M25 698v86h139v646h186q354 0 526.5 -173.5t172.5 -521.5q0 -330 -167 -532.5t-497 -202.5h-221v698h-139zM291 784h364v-86h-364v-579h131q233 0 362 160.5t129 435.5q0 84 -7 149.5t-36.5 154.5t-82 148.5t-151.5 101.5t-237 42h-108v-527z" />
<glyph unicode="&#xd1;" horiz-adv-x="1214" d="M164 0v1430h164l600 -1270h4v1270h119v-1430h-164l-600 1262h-4v-1262h-119zM334 1528q0 27 8 65.5t50 88t112 49.5q43 0 125 -48q74 -43 96 -43q27 0 49.5 29t22.5 72h86q0 -61 -40 -132t-118 -71q-57 0 -129 49q-63 41 -92 41q-39 0 -61.5 -36.5t-22.5 -63.5h-86z" />
<glyph unicode="&#xd2;" horiz-adv-x="1216" d="M104 715q0 45 1 80.5t11.5 116.5t28 143.5t54.5 139.5t89 128t135 86t185.5 35t185.5 -35t135 -86t89 -128t54.5 -139.5t27.5 -143.5t11 -116.5t1 -80.5t-1 -81t-11 -117t-27.5 -143.5t-54.5 -139t-89 -128t-135 -86t-185.5 -34.5t-185.5 34.5t-135 86t-89 128t-54.5 139 t-28 143.5t-11.5 117t-1 81zM240 715q0 -41 1 -71t8 -98.5t19.5 -119.5t40 -115.5t65.5 -106.5t98 -71t136 -29t136.5 29t98.5 71t65.5 106.5t40 115.5t19.5 119.5t8 98.5t1 71t-1 70.5t-8 98t-19.5 120t-40 116t-65.5 106.5t-98.5 70.5t-136.5 28.5t-136 -28.5t-98 -70.5 t-65.5 -106.5t-40 -116t-19.5 -120t-8 -98t-1 -70.5zM403 1780h144l155 -291h-102z" />
<glyph unicode="&#xd3;" horiz-adv-x="1216" d="M104 715q0 45 1 80.5t11.5 116.5t28 143.5t54.5 139.5t89 128t135 86t185.5 35t185.5 -35t135 -86t89 -128t54.5 -139.5t27.5 -143.5t11 -116.5t1 -80.5t-1 -81t-11 -117t-27.5 -143.5t-54.5 -139t-89 -128t-135 -86t-185.5 -34.5t-185.5 34.5t-135 86t-89 128t-54.5 139 t-28 143.5t-11.5 117t-1 81zM240 715q0 -41 1 -71t8 -98.5t19.5 -119.5t40 -115.5t65.5 -106.5t98 -71t136 -29t136.5 29t98.5 71t65.5 106.5t40 115.5t19.5 119.5t8 98.5t1 71t-1 70.5t-8 98t-19.5 120t-40 116t-65.5 106.5t-98.5 70.5t-136.5 28.5t-136 -28.5t-98 -70.5 t-65.5 -106.5t-40 -116t-19.5 -120t-8 -98t-1 -70.5zM514 1489l156 291h143l-197 -291h-102z" />
<glyph unicode="&#xd4;" horiz-adv-x="1216" d="M104 715q0 45 1 80.5t11.5 116.5t28 143.5t54.5 139.5t89 128t135 86t185.5 35t185.5 -35t135 -86t89 -128t54.5 -139.5t27.5 -143.5t11 -116.5t1 -80.5t-1 -81t-11 -117t-27.5 -143.5t-54.5 -139t-89 -128t-135 -86t-185.5 -34.5t-185.5 34.5t-135 86t-89 128t-54.5 139 t-28 143.5t-11.5 117t-1 81zM240 715q0 -41 1 -71t8 -98.5t19.5 -119.5t40 -115.5t65.5 -106.5t98 -71t136 -29t136.5 29t98.5 71t65.5 106.5t40 115.5t19.5 119.5t8 98.5t1 71t-1 70.5t-8 98t-19.5 120t-40 116t-65.5 106.5t-98.5 70.5t-136.5 28.5t-136 -28.5t-98 -70.5 t-65.5 -106.5t-40 -116t-19.5 -120t-8 -98t-1 -70.5zM350 1489l199 291h119l198 -291h-118l-140 209l-139 -209h-119z" />
<glyph unicode="&#xd5;" horiz-adv-x="1216" d="M104 715q0 45 1 80.5t11.5 116.5t28 143.5t54.5 139.5t89 128t135 86t185.5 35t185.5 -35t135 -86t89 -128t54.5 -139.5t27.5 -143.5t11 -116.5t1 -80.5t-1 -81t-11 -117t-27.5 -143.5t-54.5 -139t-89 -128t-135 -86t-185.5 -34.5t-185.5 34.5t-135 86t-89 128t-54.5 139 t-28 143.5t-11.5 117t-1 81zM240 715q0 -41 1 -71t8 -98.5t19.5 -119.5t40 -115.5t65.5 -106.5t98 -71t136 -29t136.5 29t98.5 71t65.5 106.5t40 115.5t19.5 119.5t8 98.5t1 71t-1 70.5t-8 98t-19.5 120t-40 116t-65.5 106.5t-98.5 70.5t-136.5 28.5t-136 -28.5t-98 -70.5 t-65.5 -106.5t-40 -116t-19.5 -120t-8 -98t-1 -70.5zM334 1528q0 27 8 65.5t50 88t112 49.5q43 0 125 -48q74 -43 96 -43q27 0 49.5 29t22.5 72h86q0 -61 -40 -132t-118 -71q-57 0 -129 49q-63 41 -92 41q-39 0 -61.5 -36.5t-22.5 -63.5h-86z" />
<glyph unicode="&#xd6;" horiz-adv-x="1216" d="M104 715q0 45 1 80.5t11.5 116.5t28 143.5t54.5 139.5t89 128t135 86t185.5 35t185.5 -35t135 -86t89 -128t54.5 -139.5t27.5 -143.5t11 -116.5t1 -80.5t-1 -81t-11 -117t-27.5 -143.5t-54.5 -139t-89 -128t-135 -86t-185.5 -34.5t-185.5 34.5t-135 86t-89 128t-54.5 139 t-28 143.5t-11.5 117t-1 81zM240 715q0 -41 1 -71t8 -98.5t19.5 -119.5t40 -115.5t65.5 -106.5t98 -71t136 -29t136.5 29t98.5 71t65.5 106.5t40 115.5t19.5 119.5t8 98.5t1 71t-1 70.5t-8 98t-19.5 120t-40 116t-65.5 106.5t-98.5 70.5t-136.5 28.5t-136 -28.5t-98 -70.5 t-65.5 -106.5t-40 -116t-19.5 -120t-8 -98t-1 -70.5zM395 1546v201h119v-201h-119zM702 1546v201h119v-201h-119z" />
<glyph unicode="&#xd7;" horiz-adv-x="1228" d="M152 129l389 389l-389 389l73 74l389 -391l390 391l73 -74l-391 -389l391 -389l-73 -74l-390 391l-389 -391z" />
<glyph unicode="&#xd8;" horiz-adv-x="1216" d="M18 33l172 217q-86 178 -86 465q0 45 1 80.5t11.5 116.5t28 143.5t54.5 139.5t89 128t135 86t185 35q248 0 375 -189l158 201l57 -49l-174 -221q88 -178 88 -471q0 -45 -1 -81t-11 -117t-27.5 -143.5t-54.5 -139t-89 -128t-135 -86t-186 -34.5q-248 0 -379 194l-153 -194 zM240 715q0 -207 45 -344l610 774q-94 180 -287 180q-76 0 -136 -28.5t-98 -70.5t-65.5 -106.5t-40 -116t-19.5 -120t-8 -98t-1 -70.5zM317 291q94 -186 291 -187q76 0 136.5 29t98.5 71t65.5 106.5t40 115.5t19.5 119.5t8 98.5t1 71q0 213 -47 352z" />
<glyph unicode="&#xd9;" horiz-adv-x="1175" d="M164 526v904h127v-902q0 -72 6 -128t24.5 -113.5t50 -95t87 -62.5t129.5 -25q96 0 158.5 37t91 105.5t38 132t9.5 149.5v902h127v-904q0 -540 -422 -540h-2q-233 0 -328.5 143t-95.5 397zM383 1780h143l156 -291h-102z" />
<glyph unicode="&#xda;" horiz-adv-x="1175" d="M164 526v904h127v-902q0 -72 6 -128t24.5 -113.5t50 -95t87 -62.5t129.5 -25q96 0 158.5 37t91 105.5t38 132t9.5 149.5v902h127v-904q0 -540 -422 -540h-2q-233 0 -328.5 143t-95.5 397zM494 1489l155 291h144l-197 -291h-102z" />
<glyph unicode="&#xdb;" horiz-adv-x="1175" d="M164 526v904h127v-902q0 -72 6 -128t24.5 -113.5t50 -95t87 -62.5t129.5 -25q96 0 158.5 37t91 105.5t38 132t9.5 149.5v902h127v-904q0 -540 -422 -540h-2q-233 0 -328.5 143t-95.5 397zM330 1489l198 291h119l199 -291h-119l-139 209l-139 -209h-119z" />
<glyph unicode="&#xdc;" horiz-adv-x="1175" d="M164 526v904h127v-902q0 -72 6 -128t24.5 -113.5t50 -95t87 -62.5t129.5 -25q96 0 158.5 37t91 105.5t38 132t9.5 149.5v902h127v-904q0 -540 -422 -540h-2q-233 0 -328.5 143t-95.5 397zM375 1546v201h119v-201h-119zM682 1546v201h119v-201h-119z" />
<glyph unicode="&#xdd;" horiz-adv-x="1024" d="M88 1430h135l291 -693l287 693h135l-361 -809v-621h-126v621zM418 1489l155 291h144l-197 -291h-102z" />
<glyph unicode="&#xde;" horiz-adv-x="948" d="M164 1430h127v-308h141q436 0 436 -403q0 -211 -117.5 -307.5t-281.5 -96.5h-178v-315h-127v1430zM291 434h129q152 0 232.5 63.5t80.5 221.5q0 82 -24.5 139t-56 85t-85 42t-84 16.5t-82.5 2.5h-110v-570z" />
<glyph unicode="&#xdf;" horiz-adv-x="948" d="M123 0v1098q0 133 35 229t92 144.5t114.5 69t118.5 20.5q135 0 227.5 -100.5t92.5 -276.5q0 -35 -6 -73t-26.5 -101.5t-77 -112.5t-140.5 -68v-4q311 -39 311 -405q0 -39 -5 -83t-26.5 -110.5t-57.5 -117t-107.5 -87t-165.5 -36.5q-78 0 -135 14l14 127q39 -23 100 -23 q106 0 181 84t75 269q0 285 -336 299v118q133 0 204 82t71 218q0 268 -203 268q-231 0 -231 -385v-1057h-119z" />
<glyph unicode="&#xe0;" horiz-adv-x="909" d="M84 289q0 94 40 162.5t92 101.5t132 51.5t127 21.5t113 3h76q0 55 -1 85.5t-12.5 82t-33 79t-65.5 50t-106 22.5q-131 0 -262 -108l-18 127q61 33 95 49t85 29.5t107 13.5q321 0 321 -346v-480q0 -78 12 -233h-106l-8 150h-4q-53 -86 -123 -125t-170 -39q-121 0 -206 88 t-85 215zM211 289q0 -74 52 -133.5t140 -59.5q23 0 48.5 4t66.5 22.5t70.5 49.5t52.5 91t23 140v123q-70 0 -104 -1t-92 -5t-87 -12t-68 -25.5t-57 -42t-31.5 -63.5t-13.5 -88zM250 1491h143l156 -291h-103z" />
<glyph unicode="&#xe1;" horiz-adv-x="909" d="M84 289q0 94 40 162.5t92 101.5t132 51.5t127 21.5t113 3h76q0 55 -1 85.5t-12.5 82t-33 79t-65.5 50t-106 22.5q-131 0 -262 -108l-18 127q61 33 95 49t85 29.5t107 13.5q321 0 321 -346v-480q0 -78 12 -233h-106l-8 150h-4q-53 -86 -123 -125t-170 -39q-121 0 -206 88 t-85 215zM211 289q0 -74 52 -133.5t140 -59.5q23 0 48.5 4t66.5 22.5t70.5 49.5t52.5 91t23 140v123q-70 0 -104 -1t-92 -5t-87 -12t-68 -25.5t-57 -42t-31.5 -63.5t-13.5 -88zM360 1200l156 291h143l-196 -291h-103z" />
<glyph unicode="&#xe2;" horiz-adv-x="909" d="M84 289q0 94 40 162.5t92 101.5t132 51.5t127 21.5t113 3h76q0 55 -1 85.5t-12.5 82t-33 79t-65.5 50t-106 22.5q-131 0 -262 -108l-18 127q61 33 95 49t85 29.5t107 13.5q321 0 321 -346v-480q0 -78 12 -233h-106l-8 150h-4q-53 -86 -123 -125t-170 -39q-121 0 -206 88 t-85 215zM197 1200l198 291h119l199 -291h-119l-139 209l-140 -209h-118zM211 289q0 -74 52 -133.5t140 -59.5q23 0 48.5 4t66.5 22.5t70.5 49.5t52.5 91t23 140v123q-70 0 -104 -1t-92 -5t-87 -12t-68 -25.5t-57 -42t-31.5 -63.5t-13.5 -88z" />
<glyph unicode="&#xe3;" horiz-adv-x="909" d="M84 289q0 94 40 162.5t92 101.5t132 51.5t127 21.5t113 3h76q0 55 -1 85.5t-12.5 82t-33 79t-65.5 50t-106 22.5q-131 0 -262 -108l-18 127q61 33 95 49t85 29.5t107 13.5q321 0 321 -346v-480q0 -78 12 -233h-106l-8 150h-4q-53 -86 -123 -125t-170 -39q-121 0 -206 88 t-85 215zM180 1239q0 27 8.5 65.5t50.5 88t111 49.5q43 0 125 -47q74 -43 96 -43q27 0 49.5 28.5t22.5 71.5h86q0 -61 -40 -132t-118 -71q-57 0 -129 49q-63 41 -92 41q-39 0 -61.5 -36.5t-22.5 -63.5h-86zM211 289q0 -74 52 -133.5t140 -59.5q23 0 48.5 4t66.5 22.5 t70.5 49.5t52.5 91t23 140v123q-70 0 -104 -1t-92 -5t-87 -12t-68 -25.5t-57 -42t-31.5 -63.5t-13.5 -88z" />
<glyph unicode="&#xe4;" horiz-adv-x="909" d="M84 289q0 94 40 162.5t92 101.5t132 51.5t127 21.5t113 3h76q0 55 -1 85.5t-12.5 82t-33 79t-65.5 50t-106 22.5q-131 0 -262 -108l-18 127q61 33 95 49t85 29.5t107 13.5q321 0 321 -346v-480q0 -78 12 -233h-106l-8 150h-4q-53 -86 -123 -125t-170 -39q-121 0 -206 88 t-85 215zM211 289q0 -74 52 -133.5t140 -59.5q23 0 48.5 4t66.5 22.5t70.5 49.5t52.5 91t23 140v123q-70 0 -104 -1t-92 -5t-87 -12t-68 -25.5t-57 -42t-31.5 -63.5t-13.5 -88zM242 1257v201h118v-201h-118zM549 1257v201h119v-201h-119z" />
<glyph unicode="&#xe5;" horiz-adv-x="909" d="M84 289q0 94 40 162.5t92 101.5t132 51.5t127 21.5t113 3h76q0 55 -1 85.5t-12.5 82t-33 79t-65.5 50t-106 22.5q-131 0 -262 -108l-18 127q61 33 95 49t85 29.5t107 13.5q321 0 321 -346v-480q0 -78 12 -233h-106l-8 150h-4q-53 -86 -123 -125t-170 -39q-121 0 -206 88 t-85 215zM211 289q0 -74 52 -133.5t140 -59.5q23 0 48.5 4t66.5 22.5t70.5 49.5t52.5 91t23 140v123q-70 0 -104 -1t-92 -5t-87 -12t-68 -25.5t-57 -42t-31.5 -63.5t-13.5 -88zM256 1362q0 84 58.5 141.5t140.5 57.5t140 -57.5t58 -141.5t-58 -141.5t-140 -57.5t-140.5 57.5 t-58.5 141.5zM326 1362q0 -53 37.5 -91t91 -38t91.5 38t38 91t-38 91t-91.5 38t-91 -38t-37.5 -91z" />
<glyph unicode="&#xe6;" horiz-adv-x="1402" d="M76 287q0 180 120.5 261t309.5 81h115q0 72 -5.5 117t-24 97t-61.5 78.5t-110 26.5q-47 0 -94 -17.5t-68.5 -30.5t-64.5 -44l-11 117q6 6 37 24.5t93.5 40t121.5 21.5q68 0 121 -23.5t82 -59.5t42 -60.5t19 -45.5q94 188 279 189q80 0 141.5 -29t97 -80t60 -104t35 -121 t13.5 -110t3 -89h-579v-45q0 -43 9 -95t34.5 -124t86 -119t148.5 -47q27 0 52.5 5t53 15.5t43 17.5t42.5 22l32 16l8 -135q-102 -51 -241 -51q-133 0 -217 65.5t-119 169.5h-4q-76 -235 -318 -235h-2q-74 0 -130 28.5t-83.5 65.5t-44 85t-19.5 75.5t-3 46.5zM203 287 q0 -84 49 -137.5t127 -53.5q121 0 181.5 101.5t60.5 232.5v96q-53 0 -89 -2t-91.5 -8t-92.5 -22.5t-72.5 -41t-54 -67.5t-18.5 -98zM748 629h452q0 18 -1 36.5t-6 60.5t-20.5 76t-37 69.5t-62.5 56t-92 20.5q-78 0 -131 -45t-71.5 -112.5t-24.5 -103.5t-6 -58z" />
<glyph unicode="&#xe7;" horiz-adv-x="757" d="M84 518q0 248 110.5 394.5t321.5 146.5q107 0 195 -37l-6 -135q-63 53 -189 53q-131 0 -218 -96t-87 -291q0 -135 34 -230.5t88 -139.5t102 -61.5t100 -17.5q129 0 176 56l10 -135q-88 -39 -203 -39h-16l-78 -99l4 -4q35 10 61 11q68 0 116 -36t48 -102q0 -84 -64.5 -125 t-154.5 -41q-127 0 -176 33l21 58q82 -29 135 -29q129 0 129 94q0 41 -30 63.5t-71 22.5q-29 0 -94 -27l-26 29l114 160q-154 29 -253 164t-99 360z" />
<glyph unicode="&#xe8;" horiz-adv-x="872" d="M84 522q0 272 109.5 404.5t261.5 132.5q88 0 151.5 -37t97 -91t54 -137t25.5 -152t5 -159h-577q0 -109 27.5 -188.5t61.5 -115.5t83 -57.5t72.5 -23.5t50.5 -2q53 0 117.5 23.5t107.5 62.5l6 -137q-111 -59 -243 -59q-84 0 -152 25.5t-110 61.5t-71.5 92t-44 101 t-22.5 105.5t-9 87t-1 63.5zM211 594h451q0 188 -63.5 271t-149.5 83q-111 0 -174.5 -116.5t-63.5 -237.5zM231 1491h144l155 -291h-102z" />
<glyph unicode="&#xe9;" horiz-adv-x="872" d="M84 522q0 272 109.5 404.5t261.5 132.5q88 0 151.5 -37t97 -91t54 -137t25.5 -152t5 -159h-577q0 -109 27.5 -188.5t61.5 -115.5t83 -57.5t72.5 -23.5t50.5 -2q53 0 117.5 23.5t107.5 62.5l6 -137q-111 -59 -243 -59q-84 0 -152 25.5t-110 61.5t-71.5 92t-44 101 t-22.5 105.5t-9 87t-1 63.5zM211 594h451q0 188 -63.5 271t-149.5 83q-111 0 -174.5 -116.5t-63.5 -237.5zM342 1200l156 291h143l-197 -291h-102z" />
<glyph unicode="&#xea;" horiz-adv-x="872" d="M84 522q0 272 109.5 404.5t261.5 132.5q88 0 151.5 -37t97 -91t54 -137t25.5 -152t5 -159h-577q0 -109 27.5 -188.5t61.5 -115.5t83 -57.5t72.5 -23.5t50.5 -2q53 0 117.5 23.5t107.5 62.5l6 -137q-111 -59 -243 -59q-84 0 -152 25.5t-110 61.5t-71.5 92t-44 101 t-22.5 105.5t-9 87t-1 63.5zM178 1200l199 291h119l198 -291h-119l-139 209l-139 -209h-119zM211 594h451q0 188 -63.5 271t-149.5 83q-111 0 -174.5 -116.5t-63.5 -237.5z" />
<glyph unicode="&#xeb;" horiz-adv-x="872" d="M84 522q0 272 109.5 404.5t261.5 132.5q88 0 151.5 -37t97 -91t54 -137t25.5 -152t5 -159h-577q0 -109 27.5 -188.5t61.5 -115.5t83 -57.5t72.5 -23.5t50.5 -2q53 0 117.5 23.5t107.5 62.5l6 -137q-111 -59 -243 -59q-84 0 -152 25.5t-110 61.5t-71.5 92t-44 101 t-22.5 105.5t-9 87t-1 63.5zM211 594h451q0 188 -63.5 271t-149.5 83q-111 0 -174.5 -116.5t-63.5 -237.5zM223 1257v201h119v-201h-119zM530 1257v201h119v-201h-119z" />
<glyph unicode="&#xec;" horiz-adv-x="417" d="M4 1491h143l156 -291h-102zM150 0v1044h118v-1044h-118z" />
<glyph unicode="&#xed;" horiz-adv-x="417" d="M115 1200l155 291h144l-197 -291h-102zM150 0v1044h118v-1044h-118z" />
<glyph unicode="&#xee;" horiz-adv-x="417" d="M-49 1200l199 291h118l199 -291h-119l-139 209l-139 -209h-119zM150 0v1044h118v-1044h-118z" />
<glyph unicode="&#xef;" horiz-adv-x="417" d="M-4 1257v201h119v-201h-119zM150 0v1044h118v-1044h-118zM303 1257v201h119v-201h-119z" />
<glyph unicode="&#xf0;" horiz-adv-x="950" d="M84 494q0 106 19.5 195t61.5 169t122 126t188 46q141 0 234 -108l4 4q-66 240 -271 409l-200 -129l-62 54l195 124q-104 74 -223 107l69 70q139 -49 242 -121l188 121l62 -54l-187 -118q176 -141 258 -343t82 -428q0 -632 -390 -632h-1q-109 0 -188.5 45t-121.5 121.5 t-61.5 161.5t-19.5 180zM211 494q0 -27 2 -50.5t8 -77t23.5 -94.5t44 -84t75 -67.5t112 -24.5t111.5 24.5t74.5 67.5t44 84t23.5 94.5t8 77t2 50.5q0 426 -264 426t-264 -426z" />
<glyph unicode="&#xf1;" horiz-adv-x="948" d="M131 1044h111q6 -68 8 -153h4q92 168 266 168q82 0 140.5 -33t86 -72t43 -99t17.5 -89t2 -66v-700h-119v705q0 33 -1 54t-11 61t-29.5 64.5t-58.5 44t-94 19.5q-106 0 -172 -87t-66 -212v-649h-119v721q0 61 -4 174t-4 149zM201 1239q0 27 8 65.5t50 88t112 49.5 q43 0 125 -47q74 -43 96 -43q27 0 49.5 28.5t22.5 71.5h86q0 -61 -40 -132t-118 -71q-57 0 -129 49q-63 41 -92 41q-39 0 -61.5 -36.5t-22.5 -63.5h-86z" />
<glyph unicode="&#xf2;" horiz-adv-x="950" d="M84 522.5q0 106.5 19.5 195.5t61.5 169t122 126t188.5 46t188 -46t121.5 -126t61.5 -169t19.5 -195.5t-19.5 -195.5t-61.5 -169t-121.5 -126t-188 -46t-188.5 46t-122 126t-61.5 169t-19.5 195.5zM211 522q0 -426 264 -426t264 426t-264 426t-264 -426zM270 1491h144 l155 -291h-102z" />
<glyph unicode="&#xf3;" horiz-adv-x="950" d="M84 522.5q0 106.5 19.5 195.5t61.5 169t122 126t188.5 46t188 -46t121.5 -126t61.5 -169t19.5 -195.5t-19.5 -195.5t-61.5 -169t-121.5 -126t-188 -46t-188.5 46t-122 126t-61.5 169t-19.5 195.5zM211 522q0 -426 264 -426t264 426t-264 426t-264 -426zM381 1200l156 291 h143l-197 -291h-102z" />
<glyph unicode="&#xf4;" horiz-adv-x="950" d="M84 522.5q0 106.5 19.5 195.5t61.5 169t122 126t188.5 46t188 -46t121.5 -126t61.5 -169t19.5 -195.5t-19.5 -195.5t-61.5 -169t-121.5 -126t-188 -46t-188.5 46t-122 126t-61.5 169t-19.5 195.5zM211 522q0 -426 264 -426t264 426t-264 426t-264 -426zM217 1200l199 291 h119l198 -291h-119l-139 209l-139 -209h-119z" />
<glyph unicode="&#xf5;" horiz-adv-x="950" d="M84 522.5q0 106.5 19.5 195.5t61.5 169t122 126t188.5 46t188 -46t121.5 -126t61.5 -169t19.5 -195.5t-19.5 -195.5t-61.5 -169t-121.5 -126t-188 -46t-188.5 46t-122 126t-61.5 169t-19.5 195.5zM201 1239q0 27 8 65.5t50 88t112 49.5q43 0 125 -47q74 -43 96 -43 q27 0 49.5 28.5t22.5 71.5h86q0 -61 -40 -132t-118 -71q-57 0 -129 49q-63 41 -92 41q-39 0 -61.5 -36.5t-22.5 -63.5h-86zM211 522q0 -426 264 -426t264 426t-264 426t-264 -426z" />
<glyph unicode="&#xf6;" horiz-adv-x="950" d="M84 522.5q0 106.5 19.5 195.5t61.5 169t122 126t188.5 46t188 -46t121.5 -126t61.5 -169t19.5 -195.5t-19.5 -195.5t-61.5 -169t-121.5 -126t-188 -46t-188.5 46t-122 126t-61.5 169t-19.5 195.5zM211 522q0 -426 264 -426t264 426t-264 426t-264 -426zM262 1257v201h119 v-201h-119zM569 1257v201h119v-201h-119z" />
<glyph unicode="&#xf7;" horiz-adv-x="1228" d="M96 467v102h1037v-102h-1037zM502 98q0 45 33.5 79t78.5 34t79 -34t34 -79t-34 -78.5t-79 -33.5t-78.5 33.5t-33.5 78.5zM502 938q0 45 33.5 79t78.5 34t79 -34t34 -79t-34 -79t-79 -34t-78.5 34t-33.5 79z" />
<glyph unicode="&#xf8;" horiz-adv-x="948" d="M33 29l121 153q-70 133 -70 340q0 106 19.5 195.5t61.5 169.5t122 126t188 46q176 0 275 -121l94 121l53 -45l-106 -135q75 -133 75 -351v-6q0 -106 -19.5 -195t-61.5 -169t-121.5 -126t-188.5 -46q-182 0 -282 133l-107 -133zM211 522q0 -137 29 -229l432 547 q-65 108 -195 108h-2q-264 0 -264 -426zM270 219q66 -123 205 -123q264 0 264 426v8q0 147 -34 240z" />
<glyph unicode="&#xf9;" horiz-adv-x="948" d="M139 315v729h119v-704q0 -33 1 -54.5t11.5 -61.5t29.5 -64.5t58 -44t95 -19.5q106 0 171.5 87t65.5 212v649h119v-720q0 -61 4 -174t4 -150h-110q-6 68 -9 154h-4q-14 -51 -82.5 -109.5t-183.5 -58.5q-158 0 -223.5 93t-65.5 236zM270 1491h144l155 -291h-102z" />
<glyph unicode="&#xfa;" horiz-adv-x="948" d="M139 315v729h119v-704q0 -33 1 -54.5t11.5 -61.5t29.5 -64.5t58 -44t95 -19.5q106 0 171.5 87t65.5 212v649h119v-720q0 -61 4 -174t4 -150h-110q-6 68 -9 154h-4q-14 -51 -82.5 -109.5t-183.5 -58.5q-158 0 -223.5 93t-65.5 236zM381 1200l156 291h143l-197 -291h-102z " />
<glyph unicode="&#xfb;" horiz-adv-x="948" d="M139 315v729h119v-704q0 -33 1 -54.5t11.5 -61.5t29.5 -64.5t58 -44t95 -19.5q106 0 171.5 87t65.5 212v649h119v-720q0 -61 4 -174t4 -150h-110q-6 68 -9 154h-4q-14 -51 -82.5 -109.5t-183.5 -58.5q-158 0 -223.5 93t-65.5 236zM217 1200l199 291h119l198 -291h-119 l-139 209l-139 -209h-119z" />
<glyph unicode="&#xfc;" horiz-adv-x="948" d="M139 315v729h119v-704q0 -33 1 -54.5t11.5 -61.5t29.5 -64.5t58 -44t95 -19.5q106 0 171.5 87t65.5 212v649h119v-720q0 -61 4 -174t4 -150h-110q-6 68 -9 154h-4q-14 -51 -82.5 -109.5t-183.5 -58.5q-158 0 -223.5 93t-65.5 236zM262 1257v201h119v-201h-119zM569 1257 v201h119v-201h-119z" />
<glyph unicode="&#xfd;" horiz-adv-x="757" d="M20 1044h127l234 -868h4l233 868h119l-342 -1239q-18 -70 -30.5 -103.5t-39 -76.5t-67.5 -61.5t-100 -18.5q-37 0 -80 13l6 120q32 -22 80 -22h4q72 0 106 121l54 198zM285 1200l155 291h144l-197 -291h-102z" />
<glyph unicode="&#xfe;" horiz-adv-x="948" d="M123 1536h127v-627h4q96 150 258 150q80 0 143.5 -31t99.5 -84t60.5 -107.5t33.5 -119t12 -98t3 -62.5q0 -158 -32.5 -281.5t-113.5 -206.5t-200 -83q-186 0 -264 145h-4v-573h-119v1632q0 166 -8 346zM242 535q0 -51 1 -83t8 -91.5t23.5 -98.5t43 -81t72.5 -63.5 t108 -21.5q239 0 239 426t-237 426q-258 0 -258 -413z" />
<glyph unicode="&#xff;" horiz-adv-x="757" d="M20 1044h127l234 -868h4l233 868h119l-342 -1239q-18 -70 -30.5 -103.5t-39 -76.5t-67.5 -61.5t-100 -18.5q-37 0 -80 13l6 120q32 -22 80 -22h4q72 0 106 121l54 198zM166 1257v201h119v-201h-119zM473 1257v201h119v-201h-119z" />
<glyph unicode="&#x152;" horiz-adv-x="1517" d="M104 714.5q0 155.5 28 281.5t88.5 229.5t169 161t257.5 57.5q14 0 30.5 -1t36 -3t29.5 -2q66 -8 97 -8h538v-119h-446v-508h424v-119h-424v-565h469v-119h-561q-14 0 -29.5 -1t-36 -3t-31.5 -2q-66 -8 -96 -8q-150 0 -258 57t-168.5 160.5t-88.5 229.5t-28 281.5z M231 715q0 -291 100.5 -451t309.5 -160q121 1 164 15v1192q-43 14 -164 14q-209 0 -309.5 -159.5t-100.5 -450.5z" />
<glyph unicode="&#x153;" horiz-adv-x="1517" d="M84 522.5q0 106.5 19.5 195.5t61.5 169t122 126t188 46q242 0 334 -219q47 111 131 165t178 54q88 0 151.5 -37t97.5 -91t54.5 -137t25.5 -152t5 -159h-586q0 -109 29 -188.5t64.5 -115.5t86 -57.5t74 -23.5t49.5 -2q53 0 118 23.5t108 62.5l6 -137q-111 -59 -244 -59 q-250 0 -352 215q-90 -215 -330 -215q-109 0 -188.5 46t-121.5 126t-61.5 169t-19.5 195.5zM211 522q0 -426 264 -426t264 426t-264 426t-264 -426zM866 594h459q0 188 -63.5 271t-149.5 83q-80 0 -138.5 -62.5t-83 -140t-24.5 -151.5z" />
<glyph unicode="&#x178;" horiz-adv-x="1024" d="M88 1430h135l291 -693l287 693h135l-361 -809v-621h-126v621zM299 1546v201h119v-201h-119zM606 1546v201h119v-201h-119z" />
<glyph unicode="&#x2c6;" horiz-adv-x="380" d="M-68 1200l199 291h119l199 -291h-119l-140 209l-139 -209h-119z" />
<glyph unicode="&#x2dc;" horiz-adv-x="380" d="M-84 1239q0 27 8 65.5t50 88t112 49.5q43 0 125 -47q74 -43 96 -43q27 0 49.5 28.5t22.5 71.5h86q0 -61 -40 -132t-118 -71q-57 0 -129 49q-63 41 -92 41q-39 0 -61.5 -36.5t-22.5 -63.5h-86z" />
<glyph unicode="&#x2000;" horiz-adv-x="935" />
<glyph unicode="&#x2001;" horiz-adv-x="1870" />
<glyph unicode="&#x2002;" horiz-adv-x="935" />
<glyph unicode="&#x2003;" horiz-adv-x="1870" />
<glyph unicode="&#x2004;" horiz-adv-x="623" />
<glyph unicode="&#x2005;" horiz-adv-x="467" />
<glyph unicode="&#x2006;" horiz-adv-x="311" />
<glyph unicode="&#x2007;" horiz-adv-x="311" />
<glyph unicode="&#x2008;" horiz-adv-x="233" />
<glyph unicode="&#x2009;" horiz-adv-x="374" />
<glyph unicode="&#x200a;" horiz-adv-x="103" />
<glyph unicode="&#x2010;" horiz-adv-x="606" d="M94 512v119h418v-119h-418z" />
<glyph unicode="&#x2011;" horiz-adv-x="606" d="M94 512v119h418v-119h-418z" />
<glyph unicode="&#x2012;" horiz-adv-x="606" d="M94 512v119h418v-119h-418z" />
<glyph unicode="&#x2013;" horiz-adv-x="1024" d="M0 516v111h1024v-111h-1024z" />
<glyph unicode="&#x2014;" horiz-adv-x="2048" d="M0 516v111h2048v-111h-2048z" />
<glyph unicode="&#x2018;" horiz-adv-x="491" d="M121 1081l131 455h119l-99 -455h-151z" />
<glyph unicode="&#x2019;" horiz-adv-x="491" d="M121 1081l98 455h152l-131 -455h-119z" />
<glyph unicode="&#x201a;" horiz-adv-x="491" d="M121 -270l98 454h152l-131 -454h-119z" />
<glyph unicode="&#x201c;" d="M219 1081l131 455h119l-98 -455h-152zM514 1081l131 455h119l-98 -455h-152z" />
<glyph unicode="&#x201d;" d="M219 1081l98 455h152l-131 -455h-119zM514 1081l98 455h152l-131 -455h-119z" />
<glyph unicode="&#x201e;" d="M219 -270l98 454h152l-131 -454h-119zM514 -270l98 454h152l-131 -454h-119z" />
<glyph unicode="&#x2022;" horiz-adv-x="1024" d="M154 714.5q0 149.5 104 254t254 104.5t254 -104.5t104 -254t-104 -254t-254 -104.5t-254 104.5t-104 254z" />
<glyph unicode="&#x2026;" horiz-adv-x="2048" d="M262 0v201h160v-201h-160zM944 0v201h160v-201h-160zM1626 0v201h160v-201h-160z" />
<glyph unicode="&#x202f;" horiz-adv-x="374" />
<glyph unicode="&#x2039;" horiz-adv-x="530" d="M92 541l236 413h110l-219 -413l219 -430h-110z" />
<glyph unicode="&#x203a;" horiz-adv-x="530" d="M92 111l219 413l-219 430h111l235 -430l-235 -413h-111z" />
<glyph unicode="&#x205f;" horiz-adv-x="467" />
<glyph unicode="&#x20ac;" d="M35 532l16 86h125q-4 48 -4 96t4 97h-141l16 86h135q41 244 186.5 395.5t385.5 151.5q119 0 221 -47l-25 -133q-20 25 -93 44t-113 19q-178 0 -284 -122t-142 -308h575l-16 -86h-572q-4 -48 -4 -96t4 -97h543l-14 -86h-516q37 -184 142 -307t281 -123q94 0 209 56 l13 -135q-125 -37 -217 -37q-240 0 -382.5 151.5t-183.5 394.5h-149z" />
<glyph unicode="&#x2122;" horiz-adv-x="2048" d="M106 1335v95h656v-95h-277v-757h-102v757h-277zM913 578v852h177l270 -685l262 685h176v-852h-102v757h-4l-306 -757h-61l-305 757h-4v-757h-103z" />
<glyph unicode="&#xe000;" horiz-adv-x="1045" d="M0 1045h1045v-1045h-1045v1045z" />
<glyph unicode="&#xfb01;" horiz-adv-x="948" d="M31 934v110h162v224q0 137 54 215t202 78q39 0 90 -11v-118q-47 18 -95 18q-133 0 -133 -160v-246h185v-110h-185v-934h-118v934h-162zM668 1276v184h143v-184h-143zM680 0v1044h119v-1044h-119z" />
<glyph unicode="&#xfb02;" horiz-adv-x="948" d="M31 934v110h162v224q0 137 54 215t202 78q39 0 90 -11v-118q-47 18 -95 18q-133 0 -133 -160v-246h185v-110h-185v-934h-118v934h-162zM680 0v1536h119v-1536h-119z" />
<glyph unicode="&#xfb03;" horiz-adv-x="1477" d="M31 934v110h162v224q0 137 54 215t202 78q39 0 90 -11v-118q-47 18 -95 18q-133 0 -133 -160v-246h185v-110h-185v-934h-118v934h-162zM561 934v110h162v224q0 137 54 215t202 78q39 0 90 -11v-118q-47 18 -95 18q-133 0 -133 -160v-246h185v-110h-185v-934h-118v934 h-162zM1197 1276v184h144v-184h-144zM1210 0v1044h118v-1044h-118z" />
<glyph unicode="&#xfb04;" horiz-adv-x="1477" d="M31 934v110h162v224q0 137 54 215t202 78q39 0 90 -11v-118q-47 18 -95 18q-133 0 -133 -160v-246h185v-110h-185v-934h-118v934h-162zM561 934v110h162v224q0 137 54 215t202 78q39 0 90 -11v-118q-47 18 -95 18q-133 0 -133 -160v-246h185v-110h-185v-934h-118v934 h-162zM1210 0v1536h118v-1536h-118z" />
</font>
</defs>
</svg>
